
		<svg id="mainCanvas" class="landscape" xmlns="http://www.w3.org/2000/svg" xmlns:xlink="http://www/w3/org/1999/xlink" width="765" height="310" style="background-color: rgb(255, 255, 255);">
			<svg id="neckArea" class="6" name="13"><line id="hline1" class="h_lines" x1="55" y1="75" x2="705" y2="75" stroke="#1C1C1C"></line><line id="hline2" class="h_lines" x1="55" y1="110" x2="705" y2="110" stroke="#1C1C1C"></line><line id="hline3" class="h_lines" x1="55" y1="145" x2="705" y2="145" stroke="#1C1C1C"></line><line id="hline4" class="h_lines" x1="55" y1="180" x2="705" y2="180" stroke="#1C1C1C"></line><line id="hline5" class="h_lines" x1="55" y1="215" x2="705" y2="215" stroke="#1C1C1C"></line><line id="hline6" class="h_lines" x1="55" y1="250" x2="705" y2="250" stroke="#1C1C1C"></line><line id="vline1" class="v_lines" x1="55" y1="75" x2="55" y2="250" stroke="#1C1C1C"></line><line id="vline2" class="v_lines" x1="105" y1="75" x2="105" y2="250" stroke="#1C1C1C"></line><line id="vline3" class="v_lines" x1="155" y1="75" x2="155" y2="250" stroke="#1C1C1C"></line><line id="vline4" class="v_lines" x1="205" y1="75" x2="205" y2="250" stroke="#1C1C1C"></line><line id="vline5" class="v_lines" x1="255" y1="75" x2="255" y2="250" stroke="#1C1C1C"></line><line id="vline6" class="v_lines" x1="305" y1="75" x2="305" y2="250" stroke="#1C1C1C"></line><line id="vline7" class="v_lines" x1="355" y1="75" x2="355" y2="250" stroke="#1C1C1C"></line><line id="vline8" class="v_lines" x1="405" y1="75" x2="405" y2="250" stroke="#1C1C1C"></line><line id="vline9" class="v_lines" x1="455" y1="75" x2="455" y2="250" stroke="#1C1C1C"></line><line id="vline10" class="v_lines" x1="505" y1="75" x2="505" y2="250" stroke="#1C1C1C"></line><line id="vline11" class="v_lines" x1="555" y1="75" x2="555" y2="250" stroke="#1C1C1C"></line><line id="vline12" class="v_lines" x1="605" y1="75" x2="605" y2="250" stroke="#1C1C1C"></line><line id="vline13" class="v_lines" x1="655" y1="75" x2="655" y2="250" stroke="#1C1C1C"></line><line id="vline14" class="v_lines" x1="705" y1="75" x2="705" y2="250" stroke="#1C1C1C"></line></svg>
			<svg id="nameArea">
			</svg>
			<svg id="nutArea" class="55" name="75">
			</svg>
			<svg id="barreArea">
			</svg>
			<svg id="noteArea">
			</svg>
			<svg id="lineArea">
			</svg>
			<svg id="txtArea">
			</svg>
		</svg>
	
