
		<svg id="mainCanvas" class="landscape" xmlns="http://www.w3.org/2000/svg" width="710" height="310"><rect id="backArea" width="710" height="310" fill="none"></rect>
			<rect id="backGround" fill="none"></rect>
			<g id="neckArea"><line id="hline1" class="h_lines" x1="55" y1="75" x2="655" y2="75" stroke="#1C1C1C"></line><line id="hline2" class="h_lines" x1="55" y1="110" x2="655" y2="110" stroke="#1C1C1C"></line><line id="hline3" class="h_lines" x1="55" y1="145" x2="655" y2="145" stroke="#1C1C1C"></line><line id="hline4" class="h_lines" x1="55" y1="180" x2="655" y2="180" stroke="#1C1C1C"></line><line id="hline5" class="h_lines" x1="55" y1="215" x2="655" y2="215" stroke="#1C1C1C"></line><line id="hline6" class="h_lines" x1="55" y1="250" x2="655" y2="250" stroke="#1C1C1C"></line><line id="vline1" class="v_lines" x1="55" y1="75" x2="55" y2="250" stroke="#1C1C1C"></line><line id="vline2" class="v_lines" x1="105" y1="75" x2="105" y2="250" stroke="#1C1C1C"></line><line id="vline3" class="v_lines" x1="155" y1="75" x2="155" y2="250" stroke="#1C1C1C"></line><line id="vline4" class="v_lines" x1="205" y1="75" x2="205" y2="250" stroke="#1C1C1C"></line><line id="vline5" class="v_lines" x1="255" y1="75" x2="255" y2="250" stroke="#1C1C1C"></line><line id="vline6" class="v_lines" x1="305" y1="75" x2="305" y2="250" stroke="#1C1C1C"></line><line id="vline7" class="v_lines" x1="355" y1="75" x2="355" y2="250" stroke="#1C1C1C"></line><line id="vline8" class="v_lines" x1="405" y1="75" x2="405" y2="250" stroke="#1C1C1C"></line><line id="vline9" class="v_lines" x1="455" y1="75" x2="455" y2="250" stroke="#1C1C1C"></line><line id="vline10" class="v_lines" x1="505" y1="75" x2="505" y2="250" stroke="#1C1C1C"></line><line id="vline11" class="v_lines" x1="555" y1="75" x2="555" y2="250" stroke="#1C1C1C"></line><line id="vline12" class="v_lines" x1="605" y1="75" x2="605" y2="250" stroke="#1C1C1C"></line><line id="vline13" class="v_lines" x1="655" y1="75" x2="655" y2="250" stroke="#1C1C1C"></line></g>
			<g id="nameArea">
			</g>
			<g id="nutArea"><rect id="nut" x="46.666666666666664" y="74" width="8.333333333333334" height="177" fill="black"></rect></g>
			<g id="barreArea">
			</g>
			<g id="noteArea">
			<g id="Sn1Fn0" class="noteGroup"><circle class="shape_circle" cx="30" cy="75" r="16" fill="#009688"></circle><text class="txt_note" x="30" y="82.33333333333333" text-anchor="middle" font-family="Arial" font-size="22" fill="white" stroke="white">Mi</text></g><g id="Sn1Fn1" class="noteGroup"><circle class="shape_circle" cx="80" cy="75" r="16" fill="#009688"></circle><text class="txt_note" x="80" y="82.33333333333333" text-anchor="middle" font-family="Arial" font-size="22" fill="white" stroke="white">Fa</text></g><g id="Sn1Fn3" class="noteGroup"><circle class="shape_circle" cx="180" cy="75" r="16" fill="#009688"></circle><text class="txt_note" x="180" y="82.33333333333333" text-anchor="middle" font-family="Arial" font-size="22" fill="white" stroke="white">Sol</text></g><g id="Sn1Fn5" class="noteGroup"><circle class="shape_circle" cx="280" cy="75" r="16" fill="#009688"></circle><text class="txt_note" x="280" y="82.33333333333333" text-anchor="middle" font-family="Arial" font-size="22" fill="white" stroke="white">La</text></g><g id="Sn1Fn7" class="noteGroup"><circle class="shape_circle" cx="380" cy="75" r="16" fill="#3f51b5"></circle><text class="txt_note" x="380" y="82.33333333333333" text-anchor="middle" font-family="Arial" font-size="22" fill="white" stroke="white">Si</text></g><g id="Sn1Fn8" class="noteGroup"><circle class="shape_circle" cx="430" cy="75" r="16" fill="#3f51b5"></circle><text class="txt_note" x="430" y="82.33333333333333" text-anchor="middle" font-family="Arial" font-size="22" fill="white" stroke="white">Do</text></g><g id="Sn1Fn10" class="noteGroup"><circle class="shape_circle" cx="530" cy="75" r="16" fill="#3f51b5"></circle><text class="txt_note" x="530" y="82.33333333333333" text-anchor="middle" font-family="Arial" font-size="22" fill="white" stroke="white">Ré</text></g><g id="Sn1Fn12" class="noteGroup"><circle class="shape_circle" cx="630" cy="75" r="16" fill="#3f51b5"></circle><text class="txt_note" x="630" y="82.33333333333333" text-anchor="middle" font-family="Arial" font-size="22" fill="white" stroke="white">Mi</text></g><g id="Sn1Fn2" class="noteGroup"><circle class="shape_circle" cx="130" cy="75" r="16" fill="#e91e63"></circle><text class="txt_note" x="130" y="82.33333333333333" text-anchor="middle" font-family="Arial" font-size="22" fill="white" stroke="white">Solb</text></g><g id="Sn1Fn4" class="noteGroup"><circle class="shape_circle" cx="230" cy="75" r="16" fill="#e91e63"></circle><text class="txt_note" x="230" y="82.33333333333333" text-anchor="middle" font-family="Arial" font-size="22" fill="white" stroke="white">Lab</text></g><g id="Sn1Fn6" class="noteGroup"><circle class="shape_circle" cx="330" cy="75" r="16" fill="#e91e63"></circle><text class="txt_note" x="330" y="82.33333333333333" text-anchor="middle" font-family="Arial" font-size="22" fill="white" stroke="white">Sib</text></g><g id="Sn1Fn9" class="noteGroup"><circle class="shape_circle" cx="480" cy="75" r="16" fill="#e91e63"></circle><text class="txt_note" x="480" y="82.33333333333333" text-anchor="middle" font-family="Arial" font-size="22" fill="white" stroke="white">Réb</text></g><g id="Sn1Fn11" class="noteGroup"><circle class="shape_circle" cx="580" cy="75" r="16" fill="#e91e63"></circle><text class="txt_note" x="580" y="82.33333333333333" text-anchor="middle" font-family="Arial" font-size="22" fill="white" stroke="white">Mib</text></g></g>
			<g id="lineArea">
			</g>
			<g id="txtArea">
			</g>
		</svg>
	